<svg width="191" height="52" viewBox="0 0 191 52" fill="none" xmlns="http://www.w3.org/2000/svg">
<rect width="191" height="52" fill="black" fill-opacity="0"/>
<path d="M0 40.4202V1.63866H12.9585C16.0334 1.63866 18.7239 2.14846 21.0301 3.16807C23.3729 4.18768 25.313 5.57143 26.8505 7.31933C28.3879 9.06723 29.541 11.1247 30.3097 13.4916C31.0785 15.8221 31.4628 18.3165 31.4628 20.9748C31.4628 23.9244 31.0236 26.6008 30.145 29.0042C29.3031 31.3711 28.0768 33.4104 26.4661 35.1218C24.8554 36.7969 22.897 38.1078 20.5909 39.0546C18.3213 39.965 15.7772 40.4202 12.9585 40.4202H0ZM28.6625 20.9748C28.6625 18.535 28.3147 16.2955 27.6192 14.2563C26.9237 12.1807 25.8987 10.3964 24.5443 8.90336C23.2265 7.41036 21.5975 6.2451 19.6574 5.40756C17.7173 4.57003 15.4843 4.15126 12.9585 4.15126H2.80036V37.9076H12.9585C15.5209 37.9076 17.7722 37.4888 19.7123 36.6513C21.689 35.7773 23.3363 34.5756 24.6541 33.0462C25.9719 31.5168 26.9603 29.7325 27.6192 27.6933C28.3147 25.6176 28.6625 23.3782 28.6625 20.9748ZM47.7098 40.9664C45.6965 40.9664 43.8296 40.584 42.1091 39.8193C40.3887 39.0182 38.8878 37.944 37.6066 36.5966C36.362 35.2129 35.3736 33.6289 34.6415 31.8445C33.946 30.0602 33.5983 28.1485 33.5983 26.1092C33.5983 24.1064 33.946 22.2311 34.6415 20.4832C35.3736 18.6989 36.362 17.1513 37.6066 15.8403C38.8512 14.493 40.3154 13.437 41.9993 12.6723C43.7198 11.9076 45.5684 11.5252 47.5451 11.5252C49.5584 11.5252 51.4254 11.9258 53.1458 12.7269C54.8663 13.4916 56.3489 14.5476 57.5935 15.895C58.8381 17.2059 59.8081 18.7535 60.5036 20.5378C61.1991 22.2857 61.5469 24.1429 61.5469 26.1092C61.5469 26.2913 61.5469 26.528 61.5469 26.8193C61.5469 27.0742 61.5286 27.2381 61.492 27.3109H36.4535C36.5633 28.9496 36.9477 30.479 37.6066 31.8992C38.2655 33.2829 39.0891 34.4846 40.0775 35.5042C41.1025 36.5238 42.2739 37.3249 43.5917 37.9076C44.9095 38.4902 46.3188 38.7815 47.8197 38.7815C48.808 38.7815 49.7781 38.6541 50.7298 38.3992C51.6816 38.1078 52.5601 37.7255 53.3655 37.2521C54.2074 36.7787 54.9395 36.2143 55.5618 35.5588C56.2207 34.8669 56.7332 34.1204 57.0993 33.3193L59.5153 33.9748C59.1126 34.9944 58.5086 35.9412 57.7033 36.8151C56.9345 37.6527 56.0194 38.381 54.9578 39C53.9329 39.619 52.7981 40.0924 51.5535 40.4202C50.3089 40.7843 49.0277 40.9664 47.7098 40.9664ZM58.9113 25.1261C58.8015 23.451 58.4171 21.9216 57.7582 20.5378C57.1359 19.1541 56.3122 17.9706 55.2873 16.9874C54.2989 15.9678 53.1458 15.1849 51.828 14.6387C50.5102 14.056 49.1009 13.7647 47.6 13.7647C46.0992 13.7647 44.6899 14.056 43.372 14.6387C42.0542 15.1849 40.8828 15.9678 39.8579 16.9874C38.8695 17.9706 38.0642 19.1723 37.4419 20.5924C36.8562 21.9762 36.5084 23.4874 36.3986 25.1261H58.9113ZM78.185 40.9664C75.952 40.9664 73.8653 40.3838 71.9251 39.2185C69.985 38.0532 68.4659 36.5602 67.3677 34.7395V40.4202H64.8419V0.546219H67.5873V18.1891C68.9418 16.2227 70.5341 14.6204 72.3644 13.3824C74.2313 12.1443 76.373 11.5252 78.789 11.5252C80.8023 11.5252 82.6143 11.9622 84.225 12.8361C85.8722 13.6737 87.245 14.8025 88.3432 16.2227C89.4779 17.6064 90.3382 19.1905 90.9239 20.9748C91.5462 22.7227 91.8573 24.507 91.8573 26.3277C91.8573 28.2941 91.5096 30.1695 90.8141 31.9538C90.1185 33.7017 89.1485 35.2493 87.9039 36.5966C86.6959 37.9076 85.2499 38.9636 83.5661 39.7647C81.9188 40.5658 80.1251 40.9664 78.185 40.9664ZM77.6359 38.5084C79.3198 38.5084 80.8572 38.1625 82.2483 37.4706C83.6393 36.7787 84.829 35.8683 85.8173 34.7395C86.8423 33.5742 87.6293 32.2633 88.1784 30.8067C88.7641 29.3501 89.057 27.8571 89.057 26.3277C89.057 24.7255 88.7824 23.1961 88.2333 21.7395C87.7208 20.2465 86.9704 18.9356 85.9821 17.8067C85.0303 16.6415 83.8772 15.7129 82.5228 15.021C81.205 14.3291 79.7407 13.9832 78.1301 13.9832C76.9221 13.9832 75.7873 14.2017 74.7255 14.6387C73.6639 15.0392 72.6756 15.5854 71.7604 16.2773C70.8819 16.9692 70.0765 17.7703 69.3444 18.6807C68.6489 19.591 68.0632 20.5378 67.5873 21.521V30.916C67.6972 31.972 68.0998 32.9734 68.7953 33.9202C69.4909 34.8305 70.3145 35.6317 71.2662 36.3235C72.2546 36.979 73.3162 37.507 74.451 37.9076C75.5857 38.3081 76.6475 38.5084 77.6359 38.5084ZM108.081 39.0546C107.934 39.1275 107.678 39.2731 107.312 39.4916C106.982 39.6737 106.543 39.8557 105.994 40.0378C105.482 40.2199 104.896 40.3838 104.237 40.5294C103.578 40.6751 102.864 40.7479 102.096 40.7479C101.327 40.7479 100.595 40.6387 99.8992 40.4202C99.2403 40.2017 98.6546 39.8739 98.1421 39.437C97.6296 39 97.227 38.472 96.9341 37.8529C96.6413 37.2339 96.4948 36.5056 96.4948 35.6681V14.2563H92.4865V12.0168H96.4948V2.29412H99.2403V12.0168H105.884V14.2563H99.2403V35.0126C99.2403 36.0686 99.6064 36.8697 100.338 37.416C101.071 37.9258 101.894 38.1807 102.809 38.1807C103.944 38.1807 104.914 37.9986 105.72 37.6345C106.561 37.2339 107.074 36.979 107.257 36.8697L108.081 39.0546ZM114.742 1.63866H122.265L115.401 33.8109H134.015L132.642 40.4202H106.451L114.742 1.63866ZM142.556 11.7983H149.914L143.819 40.4202H136.461L142.556 11.7983ZM144.972 0.546219H152.33L150.792 7.81092H143.434L144.972 0.546219ZM156.499 18.8992H152.985L154.193 13.3277H157.707L158.091 11.5798C158.457 9.79552 159.006 8.19328 159.739 6.77311C160.471 5.35294 161.349 4.15126 162.374 3.16807C163.399 2.14846 164.534 1.36555 165.778 0.819328C167.06 0.27311 168.396 0 169.787 0C172.02 0 174.18 0.564426 176.266 1.69328L173.685 7.21008C173.209 6.91877 172.642 6.68207 171.983 6.5C171.324 6.28151 170.702 6.17227 170.116 6.17227C167.774 6.17227 166.236 7.88375 165.504 11.3067L165.065 13.3277H171.654L170.446 18.8992H163.857L156.773 52H149.416L156.499 18.8992ZM178.975 40.9118C177.218 40.9118 175.772 40.5294 174.637 39.7647C173.539 38.9636 172.99 37.6709 172.99 35.8866C172.99 35.1583 173.063 34.4846 173.209 33.8655L176.724 17.4244H173.155L174.363 11.7983H177.877L179.853 2.51261H187.211L185.235 11.7983H191L189.792 17.4244H184.081L181.061 31.4076C181.025 31.5896 180.988 31.7535 180.952 31.8992C180.952 32.0084 180.952 32.1359 180.952 32.2815C180.952 32.9734 181.135 33.465 181.501 33.7563C181.903 34.0476 182.416 34.1933 183.038 34.1933C183.77 34.1933 184.484 34.084 185.18 33.8655C185.912 33.6106 186.534 33.374 187.047 33.1555L187.266 38.9454C186.205 39.4552 184.923 39.9104 183.423 40.3109C181.922 40.7115 180.439 40.9118 178.975 40.9118Z" fill="white"/>
</svg>
