<svg width="230" height="78" viewBox="0 0 230 78" fill="none" xmlns="http://www.w3.org/2000/svg">
<rect width="230" height="77" fill="black" fill-opacity="0" transform="translate(0 0.219971)"/>
<rect y="0.219971" width="230" height="77" rx="30" fill="#DDBB00"/>
<path d="M48.5195 39.8118C45.625 38.9797 43.5156 37.9602 42.1914 36.7532C40.8789 35.5344 40.2227 34.0344 40.2227 32.2532C40.2227 30.2375 41.0254 28.5735 42.6309 27.261C44.248 25.9368 46.3457 25.2747 48.9238 25.2747C50.6816 25.2747 52.2461 25.6145 53.6172 26.2942C55 26.9739 56.0664 27.9114 56.8164 29.1067C57.5781 30.302 57.959 31.6086 57.959 33.0266H54.5664C54.5664 31.4797 54.0742 30.2668 53.0898 29.3879C52.1055 28.4973 50.7168 28.052 48.9238 28.052C47.2598 28.052 45.959 28.4211 45.0215 29.1594C44.0957 29.886 43.6328 30.8997 43.6328 32.2004C43.6328 33.2434 44.0723 34.1282 44.9512 34.8547C45.8418 35.5696 47.3477 36.2258 49.4688 36.8235C51.6016 37.4211 53.2656 38.0833 54.4609 38.8098C55.668 39.5247 56.5586 40.3625 57.1328 41.3235C57.7188 42.2844 58.0117 43.4153 58.0117 44.7161C58.0117 46.7903 57.2031 48.4543 55.5859 49.7083C53.9688 50.9504 51.8066 51.5715 49.0996 51.5715C47.3418 51.5715 45.7012 51.2375 44.1777 50.5696C42.6543 49.8899 41.4766 48.9641 40.6445 47.7922C39.8242 46.6204 39.4141 45.2903 39.4141 43.802H42.8066C42.8066 45.3489 43.375 46.5735 44.5117 47.4758C45.6602 48.3665 47.1895 48.8118 49.0996 48.8118C50.8809 48.8118 52.2461 48.4485 53.1953 47.7219C54.1445 46.9954 54.6191 46.0051 54.6191 44.7512C54.6191 43.4973 54.1797 42.5305 53.3008 41.8508C52.4219 41.1594 50.8281 40.4797 48.5195 39.8118ZM66.2559 27.595V32.2004H69.8066V34.7141H66.2559V46.509C66.2559 47.2708 66.4141 47.845 66.7305 48.2317C67.0469 48.6067 67.5859 48.7942 68.3477 48.7942C68.7227 48.7942 69.2383 48.7239 69.8945 48.5833V51.22C69.0391 51.4543 68.207 51.5715 67.3984 51.5715C65.9453 51.5715 64.8496 51.1321 64.1113 50.2532C63.373 49.3743 63.0039 48.1262 63.0039 46.509V34.7141H59.541V32.2004H63.0039V27.595H66.2559ZM85.3633 51.22C85.1758 50.845 85.0234 50.177 84.9062 49.2161C83.3945 50.7864 81.5898 51.5715 79.4922 51.5715C77.6172 51.5715 76.0762 51.0442 74.8691 49.9895C73.6738 48.9231 73.0762 47.5754 73.0762 45.9465C73.0762 43.9661 73.8262 42.4309 75.3262 41.3411C76.8379 40.2395 78.959 39.6887 81.6895 39.6887H84.8535V38.1946C84.8535 37.0579 84.5137 36.1555 83.834 35.4875C83.1543 34.8079 82.1523 34.468 80.8281 34.468C79.668 34.468 78.6953 34.761 77.9102 35.3469C77.125 35.9329 76.7324 36.6418 76.7324 37.4739H73.4629C73.4629 36.5247 73.7969 35.6106 74.4648 34.7317C75.1445 33.8411 76.0586 33.1379 77.207 32.6223C78.3672 32.1067 79.6387 31.8489 81.0215 31.8489C83.2129 31.8489 84.9297 32.3997 86.1719 33.5012C87.4141 34.5911 88.0586 36.0969 88.1055 38.0188V46.7727C88.1055 48.5188 88.3281 49.9075 88.7734 50.9387V51.22H85.3633ZM79.9668 48.7415C80.9863 48.7415 81.9531 48.4778 82.8672 47.9504C83.7812 47.4231 84.4434 46.7375 84.8535 45.8938V41.9915H82.3047C78.3203 41.9915 76.3281 43.1575 76.3281 45.4895C76.3281 46.509 76.668 47.3059 77.3477 47.8801C78.0273 48.4543 78.9004 48.7415 79.9668 48.7415ZM102.396 35.1184C101.904 35.0364 101.371 34.9954 100.797 34.9954C98.6641 34.9954 97.2168 35.9036 96.4551 37.72V51.22H93.2031V32.2004H96.3672L96.4199 34.3977C97.4863 32.6985 98.998 31.8489 100.955 31.8489C101.588 31.8489 102.068 31.9309 102.396 32.095V35.1184ZM110.693 27.595V32.2004H114.244V34.7141H110.693V46.509C110.693 47.2708 110.852 47.845 111.168 48.2317C111.484 48.6067 112.023 48.7942 112.785 48.7942C113.16 48.7942 113.676 48.7239 114.332 48.5833V51.22C113.477 51.4543 112.645 51.5715 111.836 51.5715C110.383 51.5715 109.287 51.1321 108.549 50.2532C107.811 49.3743 107.441 48.1262 107.441 46.509V34.7141H103.979V32.2004H107.441V27.595H110.693ZM130.064 32.2004L130.17 34.5911C131.623 32.7629 133.521 31.8489 135.865 31.8489C139.885 31.8489 141.912 34.1165 141.947 38.6516V51.22H138.695V38.634C138.684 37.2629 138.367 36.2493 137.746 35.593C137.137 34.9368 136.182 34.6086 134.881 34.6086C133.826 34.6086 132.9 34.8899 132.104 35.4524C131.307 36.0149 130.686 36.7532 130.24 37.6672V51.22H126.988V32.2004H130.064ZM145.99 41.5344C145.99 39.6711 146.354 37.9954 147.08 36.5071C147.818 35.0188 148.838 33.8704 150.139 33.0618C151.451 32.2532 152.945 31.8489 154.621 31.8489C157.211 31.8489 159.303 32.7454 160.896 34.5383C162.502 36.3313 163.305 38.7161 163.305 41.6926V41.9211C163.305 43.7727 162.947 45.4368 162.232 46.9133C161.529 48.3782 160.516 49.5208 159.191 50.3411C157.879 51.1614 156.367 51.5715 154.656 51.5715C152.078 51.5715 149.986 50.675 148.381 48.8821C146.787 47.0891 145.99 44.7161 145.99 41.7629V41.5344ZM149.26 41.9211C149.26 44.0305 149.746 45.7239 150.719 47.0012C151.703 48.2786 153.016 48.9172 154.656 48.9172C156.309 48.9172 157.621 48.2727 158.594 46.9836C159.566 45.6829 160.053 43.8665 160.053 41.5344C160.053 39.4485 159.555 37.761 158.559 36.4719C157.574 35.1711 156.262 34.5208 154.621 34.5208C153.016 34.5208 151.721 35.1594 150.736 36.4368C149.752 37.7141 149.26 39.5422 149.26 41.9211ZM184.223 46.7375L187.879 32.2004H191.131L185.594 51.22H182.957L178.334 36.8059L173.834 51.22H171.197L165.678 32.2004H168.912L172.656 46.4387L177.086 32.2004H179.705L184.223 46.7375Z" fill="white"/>
</svg>
